<svg width="26" height="28" viewBox="0 0 26 28" fill="none" xmlns="http://www.w3.org/2000/svg">
<g clip-path="url(#clip0_18_72)">
<path d="M13.0072 11.1217L11.5699 8.17503C11.2129 7.44536 10.5939 6.39615 9.71768 5.54789C8.8559 4.7128 7.8237 4.14455 6.57606 4.14455C3.8814 4.14455 1.75269 6.32862 1.75269 8.95412C1.75269 10.9488 2.6434 12.357 4.75604 14.5049C5.29786 15.055 5.91526 15.6496 6.59857 16.3052C8.38 18.0182 10.5955 20.1495 13.0072 22.999C15.4189 20.1495 17.6344 18.0182 19.4159 16.3052C20.0992 15.6496 20.7182 15.0534 21.2584 14.5049C23.371 12.357 24.2617 10.9488 24.2617 8.95412C24.2617 6.32862 22.133 4.14455 19.4384 4.14455C18.1891 4.14455 17.1585 4.7128 16.2968 5.54789C15.4205 6.39615 14.8015 7.44536 14.4446 8.17503L13.0072 11.1217ZM13.6375 24.7796C13.56 24.8735 13.4635 24.949 13.3547 25.0008C13.2458 25.0526 13.1272 25.0795 13.0072 25.0795C12.8872 25.0795 12.7686 25.0526 12.6598 25.0008C12.5509 24.949 12.4544 24.8735 12.377 24.7796C9.80289 21.6468 7.4732 19.4067 5.55511 17.5636C2.23502 14.3698 0.144897 12.362 0.144897 8.95412C0.144897 5.38812 3.02284 2.49744 6.57606 2.49744C9.14852 2.49744 10.9476 4.2269 12.049 5.80484C12.467 6.40603 12.7853 6.98417 13.0072 7.43877C13.2854 6.86981 13.6057 6.32356 13.9655 5.80484C15.0668 4.22526 16.8659 2.49744 19.4384 2.49744C22.9916 2.49744 25.8695 5.38812 25.8695 8.95412C25.8695 12.362 23.7794 14.3698 20.4593 17.5636C18.5412 19.4083 16.2115 21.6501 13.6375 24.7796Z" fill="black"/>
</g>
<defs>
<clipPath id="clip0_18_72">
<rect width="25.7246" height="26.3538" fill="white" transform="translate(0.144897 0.850342)"/>
</clipPath>
</defs>
</svg>
