<svg width="26" height="28" viewBox="0 0 26 28" fill="none" xmlns="http://www.w3.org/2000/svg">
<g clip-path="url(#clip0_18_69)">
<path d="M18.5587 12.3259H24.8805C24.9569 12.3259 25.0317 12.3482 25.0961 12.3902C25.1606 12.4322 25.212 12.4922 25.2444 12.563C25.2768 12.6339 25.2888 12.7127 25.279 12.7903C25.2692 12.8679 25.2381 12.9411 25.1892 13.0012L22.0283 16.8884C21.9906 16.9347 21.9434 16.972 21.89 16.9976C21.8367 17.0232 21.7785 17.0364 21.7196 17.0364C21.6607 17.0364 21.6025 17.0232 21.5492 16.9976C21.4958 16.972 21.4486 16.9347 21.4109 16.8884L18.25 13.0012C18.2011 12.9411 18.17 12.8679 18.1602 12.7903C18.1504 12.7127 18.1624 12.6339 18.1948 12.563C18.2272 12.4922 18.2787 12.4322 18.3431 12.3902C18.4075 12.3482 18.4823 12.3259 18.5587 12.3259ZM0.873019 15.6201H7.19485C7.27122 15.6201 7.34601 15.5978 7.41045 15.5558C7.47489 15.5138 7.52632 15.4538 7.55871 15.383C7.5911 15.3121 7.60311 15.2333 7.59334 15.1556C7.58357 15.078 7.55242 15.0049 7.50354 14.9448L4.34263 11.0576C4.3049 11.0113 4.2577 10.974 4.20436 10.9484C4.15101 10.9228 4.09283 10.9095 4.03393 10.9095C3.97503 10.9095 3.91685 10.9228 3.86351 10.9484C3.81016 10.974 3.76296 11.0113 3.72524 11.0576L0.564323 14.9448C0.515443 15.0049 0.484294 15.078 0.474524 15.1556C0.464754 15.2333 0.476768 15.3121 0.509159 15.383C0.541549 15.4538 0.592976 15.5138 0.657416 15.5558C0.721856 15.5978 0.796643 15.6201 0.873019 15.6201Z" fill="black"/>
<path fill-rule="evenodd" clip-rule="evenodd" d="M12.8768 5.73747C10.3815 5.73747 8.14988 6.90198 6.67554 8.73192C6.60971 8.81933 6.52739 8.8923 6.43347 8.94647C6.33956 9.00064 6.23598 9.03491 6.12888 9.04725C6.02178 9.05958 5.91335 9.04973 5.81004 9.01828C5.70673 8.98682 5.61065 8.93441 5.52751 8.86415C5.44437 8.79389 5.37587 8.70722 5.32608 8.6093C5.2763 8.51137 5.24624 8.40419 5.23769 8.29413C5.22915 8.18407 5.2423 8.07337 5.27635 7.96861C5.31041 7.86386 5.36468 7.76719 5.43594 7.68435C6.61314 6.22423 8.17495 5.14123 9.9356 4.56416C11.6962 3.98708 13.5816 3.94022 15.3675 4.42915C17.1534 4.91808 18.7647 5.92221 20.0096 7.32213C21.2545 8.72205 22.0808 10.4588 22.3901 12.3259H20.7549C20.3837 10.466 19.397 8.7945 17.9615 7.594C16.526 6.39351 14.7298 5.7377 12.8768 5.73747ZM4.99862 15.6201C5.30299 17.1431 6.02174 18.5468 7.07182 19.669C8.12191 20.7912 9.46049 21.5861 10.9329 21.962C12.4053 22.3378 13.9515 22.2793 15.3928 21.793C16.8341 21.3068 18.1117 20.4127 19.078 19.2141C19.1439 19.1267 19.2262 19.0538 19.3201 18.9996C19.414 18.9454 19.5176 18.9111 19.6247 18.8988C19.7318 18.8865 19.8402 18.8963 19.9435 18.9278C20.0468 18.9592 20.1429 19.0116 20.2261 19.0819C20.3092 19.1522 20.3777 19.2388 20.4275 19.3368C20.4773 19.4347 20.5073 19.5419 20.5159 19.6519C20.5244 19.762 20.5113 19.8727 20.4772 19.9774C20.4432 20.0822 20.3889 20.1789 20.3176 20.2617C19.1404 21.7218 17.5786 22.8048 15.818 23.3819C14.0573 23.959 12.1719 24.0058 10.386 23.5169C8.60014 23.028 6.98891 22.0238 5.74397 20.6239C4.49903 19.224 3.67278 17.4872 3.36349 15.6201H4.99862Z" fill="black"/>
</g>
<defs>
<clipPath id="clip0_18_69">
<rect width="25.7246" height="26.3538" fill="white" transform="translate(0.0144653 0.796143)"/>
</clipPath>
</defs>
</svg>
