<svg width="26" height="28" viewBox="0 0 26 28" fill="none" xmlns="http://www.w3.org/2000/svg">
<g clip-path="url(#clip0_18_75)">
<path d="M21.9662 2.55168C21.3265 2.55168 20.7131 2.81198 20.2608 3.27532C19.8086 3.73866 19.5545 4.36709 19.5545 5.02235C19.5545 5.67761 19.8086 6.30603 20.2608 6.76937C20.7131 7.23271 21.3265 7.49301 21.9662 7.49301C22.6058 7.49301 23.2192 7.23271 23.6715 6.76937C24.1238 6.30603 24.3778 5.67761 24.3778 5.02235C24.3778 4.36709 24.1238 3.73866 23.6715 3.27532C23.2192 2.81198 22.6058 2.55168 21.9662 2.55168ZM17.9467 5.02235C17.9466 4.05621 18.2781 3.12078 18.8832 2.37974C19.4883 1.6387 20.3285 1.13922 21.2567 0.968704C22.185 0.798184 23.1423 0.967479 23.961 1.44697C24.7797 1.92646 25.4078 2.68561 25.7354 3.5916C26.063 4.49759 26.0691 5.49273 25.7528 6.40291C25.4365 7.31309 24.8179 8.08036 24.0052 8.57046C23.1924 9.06057 22.2374 9.2423 21.3071 9.08388C20.3768 8.92545 19.5304 8.43695 18.9162 7.70384L8.11507 12.8428C8.36338 13.649 8.36338 14.5139 8.11507 15.3201L18.9162 20.4591C19.5655 19.6855 20.472 19.1864 21.46 19.0585C22.4481 18.9306 23.4473 19.183 24.264 19.7668C25.0807 20.3506 25.6568 21.2242 25.8806 22.2184C26.1044 23.2125 25.96 24.2564 25.4753 25.1477C24.9906 26.039 24.2003 26.7142 23.2573 27.0425C22.3144 27.3708 21.2861 27.3288 20.3717 26.9247C19.4573 26.5205 18.7219 25.783 18.308 24.855C17.8941 23.927 17.8313 22.8747 18.1316 21.9019L7.33047 16.763C6.79578 17.4013 6.08307 17.8566 5.28822 18.0676C4.49338 18.2786 3.65453 18.2351 2.88451 17.9431C2.1145 17.651 1.45027 17.1244 0.981166 16.434C0.512064 15.7436 0.260599 14.9226 0.260599 14.0815C0.260599 13.2403 0.512064 12.4193 0.981166 11.7289C1.45027 11.0385 2.1145 10.5119 2.88451 10.2198C3.65453 9.92779 4.49338 9.88433 5.28822 10.0953C6.08307 10.3063 6.79578 10.7616 7.33047 11.4L18.1316 6.26098C18.0086 5.86018 17.9463 5.44247 17.9467 5.02235ZM4.2805 11.6108C3.64088 11.6108 3.02746 11.8711 2.57518 12.3344C2.1229 12.7978 1.86881 13.4262 1.86881 14.0815C1.86881 14.7367 2.1229 15.3651 2.57518 15.8285C3.02746 16.2918 3.64088 16.5521 4.2805 16.5521C4.92011 16.5521 5.53353 16.2918 5.98581 15.8285C6.43809 15.3651 6.69218 14.7367 6.69218 14.0815C6.69218 13.4262 6.43809 12.7978 5.98581 12.3344C5.53353 11.8711 4.92011 11.6108 4.2805 11.6108ZM21.9662 20.6699C21.3265 20.6699 20.7131 20.9302 20.2608 21.3935C19.8086 21.8569 19.5545 22.4853 19.5545 23.1406C19.5545 23.7958 19.8086 24.4243 20.2608 24.8876C20.7131 25.3509 21.3265 25.6112 21.9662 25.6112C22.6058 25.6112 23.2192 25.3509 23.6715 24.8876C24.1238 24.4243 24.3778 23.7958 24.3778 23.1406C24.3778 22.4853 24.1238 21.8569 23.6715 21.3935C23.2192 20.9302 22.6058 20.6699 21.9662 20.6699Z" fill="black"/>
</g>
<defs>
<clipPath id="clip0_18_75">
<rect width="25.7246" height="26.3538" fill="white" transform="translate(0.260864 0.904419)"/>
</clipPath>
</defs>
</svg>
